<svg width="260" height="260" xmlns="http://www.w3.org/2000/svg">
    <!-- Background -->
    <rect x="0" y="0" width="260" height="260" fill="white" />

    <!-- Bingo Tiles -->
    <!-- Row 1 -->
    <rect x="10" y="10" width="40" height="40" fill="red" />
    <rect x="60" y="10" width="40" height="40" fill="red" />
    <rect x="110" y="10" width="40" height="40" fill="red" />
    <rect x="160" y="10" width="40" height="40" fill="red" />
    <rect x="210" y="10" width="40" height="40" fill="red" />

    <!-- Row 2 -->
    <rect x="10" y="60" width="40" height="40" fill="red" />
    <rect x="60" y="60" width="40" height="40" fill="red" />
    <rect x="110" y="60" width="40" height="40" fill="red" />
    <rect x="160" y="60" width="40" height="40" fill="red" />
    <rect x="210" y="60" width="40" height="40" fill="red" />

    <!-- Row 3 -->
    <rect x="10" y="110" width="40" height="40" fill="red" />
    <rect x="60" y="110" width="40" height="40" fill="red" />
    <rect x="110" y="110" width="40" height="40" fill="red" />
    <rect x="160" y="110" width="40" height="40" fill="red" />
    <rect x="210" y="110" width="40" height="40" fill="red" />

    <!-- Row 4 -->
    <rect x="10" y="160" width="40" height="40" fill="red" />
    <rect x="60" y="160" width="40" height="40" fill="red" />
    <rect x="110" y="160" width="40" height="40" fill="red" />
    <rect x="160" y="160" width="40" height="40" fill="red" />
    <rect x="210" y="160" width="40" height="40" fill="red" />

    <!-- Row 5 -->
    <rect x="10" y="210" width="40" height="40" fill="red" />
    <rect x="60" y="210" width="40" height="40" fill="red" />
    <rect x="110" y="210" width="40" height="40" fill="red" />
    <rect x="160" y="210" width="40" height="40" fill="red" />
    <rect x="210" y="210" width="40" height="40" fill="red" />
</svg>