<svg width="500" height="500" xmlns="http://www.w3.org/2000/svg">
    <!-- Background for the SVG -->
    <rect width="500" height="500" fill="white" />

    <!-- Drawing the grid squares -->
    <!-- Row 1 -->
    <rect x="0"   y="0"   width="100" height="100" fill="red" />
    <rect x="100" y="0"   width="100" height="100" fill="red" />
    <rect x="200" y="0"   width="100" height="100" fill="red" />
    <rect x="300" y="0"   width="100" height="100" fill="red" />
    <rect x="400" y="0"   width="100" height="100" fill="red" />

    <!-- Row 2 -->
    <rect x="0"   y="100" width="100" height="100" fill="darkgrey" />
    <rect x="100" y="100" width="100" height="100" fill="red" />
    <rect x="200" y="100" width="100" height="100" fill="red" />
    <rect x="300" y="100" width="100" height="100" fill="red" />
    <rect x="400" y="100" width="100" height="100" fill="darkgrey" />

    <!-- Row 3 (center row for horizontal bingo) -->
    <rect x="0"   y="200" width="100" height="100" fill="red" />
    <rect x="100" y="200" width="100" height="100" fill="red" />
    <rect x="200" y="200" width="100" height="100" fill="red" />
    <rect x="300" y="200" width="100" height="100" fill="red" />
    <rect x="400" y="200" width="100" height="100" fill="red" />

    <!-- Row 4 -->
    <rect x="0"   y="300" width="100" height="100" fill="darkgrey" />
    <rect x="100" y="300" width="100" height="100" fill="red" />
    <rect x="200" y="300" width="100" height="100" fill="red" />
    <rect x="300" y="300" width="100" height="100" fill="red" />
    <rect x="400" y="300" width="100" height="100" fill="darkgrey" />

    <!-- Row 5 -->
    <rect x="0"   y="400" width="100" height="100" fill="red" />
    <rect x="100" y="400" width="100" height="100" fill="darkgrey" />
    <rect x="200" y="400" width="100" height="100" fill="darkgrey" />
    <rect x="300" y="400" width="100" height="100" fill="darkgrey" />
    <rect x="400" y="400" width="100" height="100" fill="red" />
</svg>
